<?xml version="1.0" standalone="no"?>
<!DOCTYPE svg PUBLIC "-//W3C//DTD SVG 20010904//EN"
 "http://www.w3.org/TR/2001/REC-SVG-20010904/DTD/svg10.dtd">
<svg version="1.0" xmlns="http://www.w3.org/2000/svg"
 width="888.000000pt" height="1280.000000pt" viewBox="0 0 888.000000 1280.000000"
 preserveAspectRatio="xMidYMid meet">
<g transform="translate(0.000000,1280.000000) scale(0.100000,-0.100000)"
fill="#000000" stroke="none">
<path d="M4094 12715 c-4 -8 -4 -21 -1 -29 3 -8 -3 -22 -13 -31 -20 -18 -17
-45 6 -45 16 0 17 -13 5 -58 -9 -29 -7 -34 15 -48 29 -20 30 -30 4 -44 -14 -8
-26 -8 -41 0 -28 15 -31 10 -17 -28 8 -21 20 -32 35 -34 28 -4 31 -22 6 -26
-10 -2 -47 -6 -83 -9 -67 -5 -98 -19 -81 -36 5 -5 17 -5 29 2 16 9 24 8 36 -4
8 -9 13 -22 10 -29 -4 -10 9 -16 48 -21 84 -10 108 -23 108 -56 0 -20 5 -29
16 -29 9 0 14 -7 12 -17 -3 -15 -17 -18 -96 -21 -90 -3 -114 1 -249 40 -39 11
-44 10 -58 -7 -8 -11 -12 -26 -10 -33 3 -7 -12 -23 -33 -35 -49 -29 -19 -36
42 -9 46 21 64 19 44 -5 -16 -20 -1 -28 26 -13 21 11 30 10 60 -4 26 -12 49
-15 89 -10 58 7 73 -1 62 -35 -4 -12 -22 -23 -51 -30 -39 -10 -44 -14 -34 -26
7 -8 19 -15 26 -15 16 0 19 -16 4 -25 -15 -9 -12 -35 4 -35 7 0 20 -7 27 -16
12 -14 9 -20 -16 -40 -40 -32 -69 -32 -61 -1 9 38 -4 68 -28 65 -12 -2 -21
-10 -21 -20 0 -9 -4 -20 -8 -24 -11 -12 -8 -24 7 -24 24 0 41 -29 29 -49 -10
-15 -5 -20 34 -36 24 -10 50 -27 57 -37 7 -9 29 -24 48 -32 20 -9 38 -22 41
-29 7 -19 -11 -37 -30 -30 -7 3 -22 -2 -31 -10 -12 -11 -22 -13 -32 -7 -24 15
-50 12 -44 -5 4 -8 12 -15 20 -15 9 0 14 -12 14 -33 0 -49 -33 -62 -117 -46
-34 7 -65 10 -69 6 -14 -14 10 -27 52 -27 50 0 59 -22 11 -28 -18 -2 -27 -9
-27 -22 0 -18 -59 -60 -84 -60 -8 0 -19 -7 -26 -15 -7 -8 -25 -15 -40 -15 -26
0 -27 -2 -17 -24 7 -14 20 -27 30 -30 11 -3 17 -12 15 -23 -2 -13 4 -19 22
-21 14 -2 32 -10 40 -17 8 -7 32 -18 53 -25 21 -6 41 -19 45 -29 18 -48 77
-66 153 -46 29 8 57 11 60 7 4 -4 5 -22 2 -40 -5 -28 -14 -37 -56 -59 -40 -20
-55 -23 -69 -14 -15 9 -56 12 -147 10 -31 -1 -49 17 -33 33 14 14 16 58 3 58
-5 0 -12 -12 -15 -26 -5 -20 -12 -25 -34 -24 -80 6 -112 0 -112 -19 0 -14 -10
-20 -41 -24 -22 -3 -48 -12 -58 -21 -11 -10 -36 -16 -65 -16 -71 0 -148 -47
-111 -67 14 -8 14 -11 2 -22 -12 -9 -26 -8 -68 9 -119 45 -309 10 -309 -57 0
-13 8 -15 44 -10 30 4 54 2 75 -9 36 -18 38 -28 13 -46 -43 -31 -38 -71 5 -43
23 15 27 15 40 2 12 -12 21 -13 39 -5 34 16 57 -6 48 -45 l-6 -29 21 21 c24
24 41 27 41 7 0 -22 14 -26 50 -16 24 7 44 5 83 -10 29 -11 60 -20 69 -20 9 0
26 -12 38 -27 18 -23 24 -25 40 -15 11 7 29 12 40 12 32 0 28 -53 -5 -68 -14
-7 -30 -24 -35 -38 l-10 -26 -143 6 c-78 4 -147 3 -153 -1 -6 -4 -13 -15 -17
-25 -3 -9 -18 -22 -33 -30 -15 -7 -29 -17 -31 -23 -5 -15 53 -44 77 -38 16 4
23 -1 33 -26 6 -17 15 -31 19 -31 4 0 8 -9 8 -20 0 -16 -7 -20 -35 -20 -30 0
-34 -3 -32 -22 2 -22 -2 -23 -93 -29 -151 -10 -230 -54 -246 -138 -7 -35 10
-41 46 -19 16 10 24 10 40 0 14 -9 26 -9 39 -3 13 7 24 6 40 -5 14 -10 26 -12
34 -6 7 5 23 12 36 15 17 4 24 1 28 -13 5 -19 58 -50 85 -50 8 0 19 5 25 11
17 17 57 7 61 -16 2 -11 15 -30 29 -42 16 -13 24 -27 20 -37 -9 -22 -36 -20
-63 5 -21 20 -23 20 -55 3 -25 -13 -56 -17 -115 -16 -92 1 -124 -16 -124 -65
l0 -26 88 7 87 7 24 -31 23 -32 -41 -34 c-35 -31 -39 -38 -29 -54 7 -11 9 -22
5 -26 -10 -11 -290 -21 -310 -11 -13 6 -27 3 -44 -9 l-27 -17 36 -18 c20 -10
38 -26 42 -35 9 -22 -25 -58 -81 -85 -60 -29 -58 -54 3 -63 26 -3 52 -11 59
-16 8 -7 24 -5 48 5 20 8 46 15 58 15 18 0 21 -5 17 -34 -4 -33 -2 -35 41 -47
34 -10 46 -10 49 -1 2 6 11 21 21 33 l18 22 20 -22 c15 -16 27 -20 45 -16 16
4 29 1 38 -10 11 -14 10 -17 -8 -22 -31 -8 -27 -23 6 -24 128 -5 151 -8 189
-28 23 -11 51 -21 61 -21 20 0 49 -26 39 -36 -9 -9 -198 17 -236 32 -49 20
-65 17 -89 -16 -26 -34 -40 -37 -83 -15 -24 13 -48 15 -115 9 -77 -6 -86 -9
-94 -30 -5 -13 -22 -30 -37 -38 -26 -14 -24 -14 45 -9 62 5 72 4 72 -10 0 -19
-37 -47 -63 -47 -21 0 -97 -70 -97 -90 0 -9 14 -11 53 -6 28 4 81 7 117 9 55
2 65 -1 68 -16 2 -10 -4 -27 -13 -37 -20 -23 -15 -33 25 -50 16 -7 30 -19 30
-27 0 -7 7 -25 16 -38 19 -29 12 -75 -12 -75 -9 0 -27 -9 -41 -19 -33 -26 -51
-17 -55 27 -3 36 -4 37 -52 44 -29 4 -56 15 -68 27 -20 22 -53 28 -63 12 -3
-6 -27 -7 -54 -4 -36 4 -55 1 -72 -11 -13 -9 -31 -16 -40 -16 -17 0 -33 -36
-23 -52 3 -4 27 -8 53 -8 26 0 52 -5 59 -12 8 -8 18 -9 35 -1 13 6 58 14 100
18 87 8 94 2 54 -49 -23 -28 -25 -29 -70 -18 -68 18 -103 15 -155 -13 -26 -14
-53 -25 -59 -25 -8 0 -13 -13 -13 -30 0 -27 3 -30 30 -30 18 0 33 -7 39 -19 6
-10 9 -20 7 -22 -2 -2 -6 -17 -10 -32 -7 -28 -6 -28 23 -22 20 4 43 -1 75 -15
44 -21 47 -21 96 -5 48 16 52 16 70 0 23 -21 12 -51 -23 -65 -22 -9 -22 -9 2
-9 19 -1 22 -5 18 -22 -5 -18 -2 -20 17 -15 17 4 31 -2 50 -19 33 -30 47 -31
71 -5 10 11 24 20 32 20 8 0 23 5 34 11 18 9 19 12 5 22 -21 17 -9 64 20 84
15 10 24 25 24 42 0 18 9 31 30 43 21 12 30 25 30 43 0 24 18 34 34 18 3 -4
21 -7 39 -7 27 -1 32 -5 35 -26 2 -21 -3 -28 -31 -38 -18 -7 -41 -12 -50 -12
-31 0 -18 -29 19 -45 48 -20 54 -19 54 8 0 33 18 47 61 47 26 0 47 -8 69 -26
26 -22 37 -26 73 -21 31 5 53 1 85 -14 46 -23 52 -36 23 -47 -25 -10 -141
-118 -134 -126 3 -3 16 -3 29 0 13 3 33 -1 48 -11 24 -16 26 -16 20 -1 -4 10
1 25 10 35 10 11 16 31 14 47 l-3 29 75 0 c75 0 75 0 75 -27 0 -36 8 -42 78
-53 60 -10 62 -11 72 -48 12 -44 8 -107 -8 -107 -6 0 -19 8 -30 17 -16 15 -35
17 -120 14 -112 -3 -124 -6 -106 -27 6 -7 9 -20 6 -28 -4 -10 2 -16 21 -18 40
-5 33 -30 -13 -43 -36 -10 -43 -9 -79 14 -90 59 -403 30 -472 -44 -13 -14 -34
-25 -48 -25 -13 0 -26 -5 -28 -12 -3 -9 -12 -9 -36 1 -51 21 -253 -14 -307
-53 -19 -14 -19 -15 -2 -33 21 -24 21 -32 0 -49 -16 -12 -14 -13 20 -14 48 0
107 -37 120 -75 2 -6 9 -5 19 2 17 15 68 20 86 9 7 -4 12 -14 12 -21 0 -8 11
-17 24 -21 24 -6 76 -74 76 -100 0 -15 -28 -18 -79 -8 -17 4 -31 13 -31 20 0
17 -5 17 -30 4 -13 -7 -27 -6 -44 1 -22 10 -31 8 -65 -15 -32 -23 -45 -26 -76
-20 -40 7 -182 -13 -191 -28 -3 -5 0 -16 7 -24 10 -12 9 -18 -3 -30 -23 -23
-68 -2 -68 31 0 22 -3 25 -25 19 -27 -7 -91 18 -97 38 -3 7 -16 -2 -33 -20
-23 -26 -34 -32 -55 -27 -18 4 -31 1 -40 -10 -17 -21 -47 -19 -60 5 -14 27
-30 25 -30 -3 0 -33 -18 -47 -60 -47 -30 0 -43 -8 -85 -52 -61 -65 -75 -89
-75 -129 0 -28 2 -31 23 -24 55 17 72 15 107 -15 30 -27 33 -33 22 -50 -10
-17 -10 -20 4 -20 9 0 18 9 21 20 5 19 11 20 64 15 51 -4 60 -2 73 16 18 27
46 19 46 -13 l1 -23 18 23 c24 28 58 29 66 1 6 -17 12 -19 33 -13 75 21 111
-8 55 -43 -18 -11 -27 -25 -25 -35 4 -20 17 -24 27 -8 9 15 72 12 88 -4 11
-12 36 -14 111 -11 106 5 116 8 116 34 0 40 61 55 83 20 8 -13 2 -25 -29 -56
-21 -22 -44 -47 -51 -56 -7 -8 -37 -21 -68 -27 -30 -6 -55 -15 -55 -18 0 -4
-21 -12 -46 -18 -38 -9 -47 -8 -51 4 -4 8 1 18 10 23 9 6 13 17 10 29 -6 23
-6 23 -55 9 -27 -7 -38 -15 -38 -29 0 -14 -11 -22 -41 -30 -40 -11 -43 -10
-65 17 -19 22 -23 36 -18 64 l5 37 -65 -5 c-67 -4 -135 -34 -136 -60 0 -9 -18
-13 -58 -13 -45 0 -72 -7 -122 -32 -39 -20 -66 -40 -68 -52 -4 -16 1 -17 45
-11 41 5 52 3 66 -13 17 -18 17 -21 1 -36 -12 -13 -26 -16 -54 -11 -44 7 -60
-7 -36 -34 24 -27 19 -58 -14 -93 -37 -39 -42 -83 -7 -74 12 3 28 6 35 6 6 0
12 6 12 14 0 9 17 16 50 20 27 4 52 11 55 17 12 18 84 59 105 59 11 0 27 -11
36 -24 13 -22 14 -29 2 -53 -9 -18 -21 -27 -33 -26 -29 4 -65 -6 -65 -17 0 -6
7 -10 15 -10 8 0 15 -6 15 -14 0 -7 6 -19 14 -26 8 -6 16 -28 18 -47 4 -48 28
-63 61 -37 34 27 97 21 97 -8 0 -14 5 -18 16 -14 9 3 21 6 28 6 7 0 33 13 57
30 24 16 50 30 57 30 16 0 15 -29 -3 -64 l-15 -28 36 7 c20 3 51 14 70 23 26
12 37 13 46 4 9 -9 7 -16 -7 -32 -15 -17 -15 -20 -3 -20 8 0 27 9 42 21 14 11
34 19 43 18 31 -3 36 1 23 16 -10 12 -10 19 -2 27 12 12 83 -5 110 -26 19 -14
83 -8 103 9 24 23 48 18 55 -10 3 -14 9 -25 13 -25 4 0 13 11 19 25 13 28 47
34 56 10 8 -21 39 -19 69 5 29 23 47 26 47 8 0 -7 10 -26 23 -42 20 -25 26
-27 44 -17 46 24 158 7 158 -24 0 -10 7 -21 15 -23 8 -3 21 -14 30 -25 16 -19
16 -19 34 8 16 25 21 26 79 23 34 -2 69 -6 77 -8 9 -3 14 2 15 15 0 22 11 22
140 7 51 -6 60 -10 63 -29 4 -27 -17 -38 -88 -48 -68 -9 -100 -21 -122 -45
-20 -21 -51 -17 -79 11 -13 13 -27 17 -46 13 -16 -3 -53 3 -83 14 -35 12 -72
17 -102 14 -42 -4 -48 -7 -48 -27 0 -13 -4 -27 -10 -30 -34 -21 27 -63 98 -67
45 -3 58 -21 20 -26 -12 -2 -33 -15 -45 -28 -12 -13 -33 -24 -47 -24 -14 0
-31 -9 -39 -20 -12 -17 -16 -18 -34 -5 -12 8 -57 17 -104 21 -101 8 -164 -6
-172 -38 -5 -19 -10 -20 -54 -13 -26 5 -66 8 -89 7 -53 -1 -150 -38 -168 -64
-20 -28 -116 -40 -116 -14 0 11 -9 16 -29 16 -39 0 -61 -9 -61 -25 0 -22 -39
-83 -57 -89 -9 -4 -21 -2 -27 4 -20 20 -64 11 -85 -19 -18 -25 -29 -30 -86
-36 -55 -5 -65 -10 -65 -25 0 -11 -9 -24 -20 -30 -11 -6 -17 -16 -14 -25 8
-19 0 -19 -54 2 -29 11 -46 13 -50 6 -10 -15 -101 -53 -115 -47 -7 2 -38 -11
-69 -30 -62 -37 -76 -37 -51 0 9 14 13 27 10 30 -7 7 -98 -13 -149 -33 -66
-26 -43 -85 26 -67 38 9 32 -5 -25 -60 -27 -27 -48 -54 -46 -60 2 -6 25 -11
50 -11 53 0 77 -16 58 -38 -9 -12 -6 -16 16 -25 35 -13 101 -13 109 -1 3 6 14
7 24 4 10 -3 21 -1 25 5 8 13 155 12 172 -2 14 -11 63 32 63 56 0 9 8 16 19
16 28 0 91 -29 91 -41 0 -7 10 -9 24 -5 24 6 86 -18 86 -34 0 -12 -35 -22 -75
-22 -27 0 -36 -6 -51 -34 -10 -18 -16 -35 -14 -37 36 -29 73 -47 94 -47 31 0
35 -20 6 -27 -15 -4 -20 -14 -20 -42 0 -44 -32 -78 -81 -87 -46 -9 -59 -21
-59 -55 0 -25 -4 -29 -26 -29 -17 0 -28 6 -31 20 -7 25 -23 26 -23 1 0 -10 7
-21 15 -25 21 -8 19 -46 -1 -46 -9 0 -22 -7 -29 -16 -13 -18 -66 -40 -135 -56
-25 -6 -52 -16 -61 -24 -8 -8 -21 -14 -27 -14 -6 0 -16 -8 -21 -19 -6 -10 -30
-23 -53 -29 -57 -15 -158 -87 -158 -113 0 -10 -6 -28 -12 -39 -21 -34 1 -55
61 -58 28 -2 51 -7 51 -12 0 -16 -35 -29 -50 -20 -8 5 -25 7 -38 3 -12 -3 -29
0 -37 7 -25 21 -95 18 -111 -5 -8 -10 -29 -24 -47 -30 -45 -14 -48 -51 -8 -89
26 -25 34 -28 58 -19 38 14 192 37 200 30 3 -4 -2 -18 -11 -31 -9 -14 -16 -32
-16 -40 0 -15 -21 -26 -52 -26 -24 0 -88 -61 -88 -84 0 -9 8 -16 20 -16 15 0
20 -7 20 -27 0 -16 8 -37 16 -48 16 -20 16 -20 31 3 20 29 53 30 53 1 0 -20 4
-21 68 -17 46 4 76 1 95 -9 25 -13 31 -13 46 1 12 11 21 12 27 6 7 -7 35 -7
85 2 41 6 76 13 78 15 2 1 -2 9 -9 18 -10 12 -9 16 5 21 9 4 21 2 28 -5 17
-17 52 -13 72 9 14 16 16 23 7 32 -16 16 -15 25 3 32 20 7 65 -10 81 -32 8 -9
14 -13 14 -8 0 11 30 -13 30 -25 0 -12 -87 -54 -230 -111 -69 -27 -134 -55
-145 -62 -11 -7 -33 -16 -50 -20 -16 -4 -37 -13 -45 -20 -11 -9 -33 -11 -78
-7 -45 5 -66 3 -73 -6 -6 -6 -32 -15 -57 -18 -69 -9 -76 -13 -63 -29 24 -28 2
-46 -58 -47 -68 -1 -123 -19 -136 -45 -5 -11 -20 -31 -33 -44 -26 -28 -28 -57
-7 -87 15 -21 13 -25 -20 -68 -45 -60 -47 -98 -5 -115 26 -11 37 -10 72 4 37
14 44 14 65 1 28 -19 43 -19 43 -1 0 7 7 19 15 26 8 7 15 21 15 32 0 25 30 36
42 15 5 -10 21 -17 39 -17 17 0 52 -9 79 -21 l48 -21 42 22 c32 17 51 20 82
15 54 -9 111 -43 104 -62 -5 -12 0 -13 24 -8 25 5 35 1 61 -24 29 -30 33 -31
92 -25 33 3 66 12 74 19 11 11 18 11 43 -1 35 -18 44 -30 30 -39 -17 -10 -11
-25 9 -25 11 0 23 -4 26 -10 3 -5 24 -10 46 -10 28 0 39 -4 39 -15 0 -28 -45
-40 -98 -27 -71 17 -171 17 -217 -1 -33 -13 -71 -15 -220 -10 -197 6 -272 -4
-260 -34 9 -26 -14 -32 -63 -18 -25 8 -49 12 -53 9 -5 -2 -62 7 -129 22 -98
22 -125 25 -146 15 -36 -16 -22 -28 41 -33 30 -3 58 -8 62 -12 19 -19 -29 -27
-132 -23 -60 3 -123 2 -140 -2 -42 -9 -44 -35 -3 -48 27 -8 33 -14 30 -35 -2
-24 1 -25 60 -32 34 -3 66 -10 70 -14 5 -5 -3 -21 -16 -35 -18 -19 -35 -27
-60 -27 -19 0 -38 -4 -41 -10 -3 -5 13 -9 40 -8 25 0 45 4 45 9 0 5 11 11 25
15 14 3 32 19 41 35 8 16 19 29 23 29 5 0 16 3 25 6 10 4 17 -2 22 -20 7 -28
41 -43 70 -32 13 5 14 9 4 22 -20 23 -3 31 80 43 63 9 77 8 86 -4 15 -20 21
-19 26 3 6 21 66 32 168 32 30 -1 126 9 212 22 86 12 160 20 163 16 6 -6 -21
-68 -30 -68 -2 0 -15 5 -29 12 -23 10 -29 8 -50 -15 -26 -28 -61 -36 -68 -15
-3 9 -19 8 -66 -5 -75 -21 -76 -21 -68 -2 8 23 -26 19 -47 -5 -10 -12 -29 -20
-46 -20 -50 0 -115 -98 -80 -121 19 -13 61 -1 79 21 8 11 34 26 57 34 35 12
44 12 60 1 10 -8 37 -15 60 -15 61 0 73 -7 73 -45 0 -23 5 -34 18 -37 9 -3 23
-17 30 -31 6 -15 18 -39 25 -54 6 -15 29 -45 51 -66 38 -39 38 -52 1 -59 -11
-1 -28 -18 -37 -37 l-17 -34 -93 -1 c-112 -2 -187 -25 -223 -67 -27 -33 -33
-85 -15 -120 13 -23 38 -25 46 -4 18 46 125 53 192 12 l34 -20 30 23 c23 17
39 21 65 17 19 -3 45 -1 58 5 19 8 52 3 167 -27 79 -21 158 -40 176 -43 17 -2
32 -8 32 -13 0 -4 -26 -21 -57 -36 -64 -31 -75 -47 -41 -57 l23 -6 -25 -21
c-20 -17 -35 -20 -82 -17 -32 2 -58 1 -58 -3 0 -5 -15 -12 -32 -17 -69 -20
-147 -63 -154 -85 -4 -12 -20 -39 -37 -59 -22 -28 -38 -38 -59 -38 -18 0 -42
-12 -66 -34 -36 -33 -40 -34 -98 -29 -35 3 -76 1 -96 -6 -25 -8 -43 -9 -63 -1
-22 8 -45 7 -96 -5 -37 -8 -86 -15 -107 -15 -27 0 -42 -5 -46 -16 -4 -11 -16
-15 -43 -12 -33 3 -38 0 -41 -19 -3 -17 -12 -24 -40 -28 -113 -17 -145 -29
-226 -81 -95 -62 -108 -80 -70 -94 32 -13 54 -13 54 0 0 5 10 14 21 21 26 14
94 -4 122 -33 22 -22 16 -23 82 6 36 17 58 33 64 49 l10 25 58 -16 c32 -8 76
-15 98 -16 48 -1 57 -24 26 -67 -28 -38 -26 -49 8 -49 21 0 36 -9 55 -34 16
-22 36 -36 54 -38 19 -2 28 -9 30 -24 2 -17 -4 -23 -29 -28 -17 -3 -42 -6 -54
-6 -12 0 -43 -11 -69 -25 -26 -14 -63 -25 -82 -25 -41 0 -54 -22 -29 -50 13
-14 14 -23 6 -39 -6 -11 -11 -22 -11 -25 0 -13 52 -4 90 15 22 12 50 19 61 16
12 -3 32 -1 45 5 18 9 29 7 49 -6 14 -9 25 -23 25 -30 0 -9 20 -16 64 -21 116
-12 126 -47 26 -97 -30 -14 -59 -34 -66 -43 -10 -13 -21 -16 -52 -10 -24 4
-70 0 -115 -9 -42 -9 -79 -16 -82 -16 -3 0 -5 -7 -5 -15 0 -8 -10 -20 -22 -27
l-23 -12 24 -6 c36 -8 36 -25 1 -40 -18 -7 -38 -19 -46 -27 -7 -8 -37 -17 -66
-20 -55 -6 -68 -15 -68 -46 0 -59 -162 -128 -218 -93 -7 4 -27 4 -45 0 -17 -4
-52 -7 -77 -5 -28 1 -71 -6 -109 -20 -56 -19 -76 -21 -160 -15 -133 10 -106
-9 34 -23 61 -6 116 -11 123 -11 20 0 14 -29 -11 -53 -53 -49 -62 -104 -22
-135 22 -17 38 -20 105 -17 43 2 83 6 89 9 6 4 28 -2 50 -14 53 -27 64 -25 99
10 31 31 56 38 67 19 4 -5 0 -18 -9 -28 -31 -34 16 -44 54 -11 22 19 40 19 40
-1 0 -5 -11 -27 -25 -49 -29 -46 -37 -86 -16 -82 7 1 48 -2 91 -8 69 -9 82 -9
124 10 60 25 70 25 106 -2 22 -16 33 -19 41 -11 9 9 6 19 -10 39 -30 38 -26
57 14 78 37 20 30 23 102 -30 20 -14 22 -14 33 5 13 25 48 27 76 6 10 -8 29
-15 41 -15 23 0 40 -31 27 -51 -8 -14 14 -56 33 -63 8 -3 23 -1 34 4 21 12
119 3 119 -11 0 -4 -23 -31 -52 -59 l-52 -51 28 -23 c26 -20 27 -25 17 -45
-12 -21 -18 -22 -64 -17 -83 10 -115 8 -138 -7 -18 -13 -25 -13 -57 0 -58 24
-72 41 -72 88 0 41 0 41 -38 41 -21 0 -43 4 -50 8 -31 19 -37 -25 -17 -120 4
-17 3 -34 -2 -37 -6 -4 -33 3 -62 13 -28 11 -66 20 -84 20 l-32 -1 29 -16 c28
-14 28 -16 12 -29 -10 -7 -44 -16 -75 -19 -173 -19 -318 -58 -335 -91 -6 -10
-13 -21 -14 -24 -2 -3 -29 -6 -60 -7 -106 -3 -140 -13 -163 -44 -29 -42 -19
-61 28 -53 42 6 70 -9 75 -41 2 -14 -3 -21 -20 -23 -12 -2 -22 -10 -22 -18 0
-22 -31 -30 -45 -11 -19 26 -55 35 -135 31 -114 -5 -147 -13 -153 -35 -9 -35
-60 -23 -192 46 -116 61 -129 65 -190 65 -36 0 -66 -3 -66 -7 -9 -61 -12 -58
54 -58 39 0 62 -5 65 -13 2 -6 15 -12 29 -12 14 0 51 -16 83 -35 32 -19 62
-35 66 -35 5 0 16 -4 24 -10 12 -7 12 -12 -4 -29 -18 -20 -17 -20 81 -20 54 1
115 4 136 9 28 6 41 4 52 -6 12 -12 473 -14 3142 -13 1720 1 3119 3 3108 6
-91 20 -114 50 -52 68 27 9 32 14 32 42 0 28 6 36 40 54 53 28 214 31 264 4
39 -20 61 -14 61 17 -1 80 -45 102 -270 138 -151 25 -226 45 -233 64 -9 23 17
37 54 30 33 -7 34 -7 17 13 -26 29 -22 36 17 29 32 -6 35 -5 35 17 0 13 -5 38
-11 56 -15 42 -3 52 22 21 l21 -25 -5 36 c-6 39 6 59 35 59 22 0 23 13 3 30
-9 7 -15 23 -13 34 3 19 9 21 63 18 42 -2 69 -9 88 -23 16 -11 44 -23 63 -26
46 -8 49 -16 19 -51 -26 -32 -32 -57 -15 -67 6 -4 18 -1 26 6 16 13 30 6 19
-10 -9 -16 -61 -13 -75 4 -12 14 -11 30 5 67 5 12 -5 23 -38 42 -24 14 -48 26
-53 26 -6 0 -15 -15 -22 -33 -7 -19 -23 -40 -37 -47 -26 -14 -26 -15 -9 -127
4 -26 1 -32 -16 -35 -31 -5 -24 -22 12 -31 18 -5 39 -14 47 -20 8 -7 35 -13
60 -14 42 -1 79 -7 137 -18 12 -3 24 -14 27 -25 4 -17 11 -19 31 -14 20 5 26
2 26 -9 0 -9 -9 -19 -21 -22 -11 -4 -18 -9 -15 -12 3 -4 24 2 46 12 40 18 41
18 63 -2 12 -12 53 -36 90 -53 l69 -32 64 21 c46 15 70 18 88 11 21 -8 28 -4
48 22 21 27 27 30 46 19 16 -8 28 -9 41 -1 14 7 28 7 47 0 15 -6 28 -9 29 -8
1 2 8 14 14 26 10 19 18 22 38 17 14 -3 35 -17 45 -31 22 -27 59 -32 78 -10 6
8 10 32 8 52 -1 21 2 39 8 41 6 2 35 -22 64 -53 43 -45 60 -57 89 -59 20 -2
63 -8 96 -15 33 -6 68 -9 78 -6 10 2 38 -4 63 -14 39 -17 45 -18 59 -4 12 13
21 14 47 5 42 -15 48 -14 48 8 0 25 36 51 70 51 26 0 95 21 106 33 4 4 17 7
29 7 19 0 85 53 85 69 0 14 -140 91 -215 118 -74 26 -91 28 -227 28 -96 -1
-148 3 -149 10 -1 5 0 27 1 47 l2 38 -57 0 c-50 0 -66 6 -148 55 -51 30 -123
81 -161 114 -80 70 -130 90 -311 122 -66 11 -155 29 -197 39 -56 13 -87 16
-115 9 -58 -13 -61 -12 -118 41 -58 56 -109 72 -110 35 0 -21 4 -21 -118 -11
-56 4 -100 32 -105 66 -3 20 0 22 28 18 29 -4 31 -3 25 20 -6 26 -4 26 78 6
23 -5 26 -4 21 10 -10 27 -83 63 -171 85 -45 12 -104 32 -131 46 -28 14 -57
25 -66 25 -21 0 -32 28 -18 42 8 8 16 7 28 -3 27 -22 147 -50 156 -36 19 31
-49 74 -122 77 -27 1 -42 10 -68 40 l-33 39 31 16 c19 10 39 13 53 9 12 -4 45
-8 72 -8 38 -1 58 -7 86 -28 43 -33 50 -34 74 -8 10 11 28 20 40 20 12 0 32
11 44 24 19 20 21 28 11 45 -12 24 -7 28 45 33 27 3 30 6 30 38 0 31 3 35 25
32 142 -15 140 -15 140 11 0 60 -79 85 -303 98 -148 8 -173 7 -203 -7 -29 -14
-41 -14 -77 -4 -23 6 -61 16 -84 22 -41 11 -55 29 -33 43 16 10 11 25 -9 25
-29 0 -42 22 -26 43 10 13 20 17 35 12 19 -6 21 -4 16 13 -8 23 15 45 41 40
15 -3 18 -13 18 -55 0 -61 23 -93 67 -93 25 0 28 3 23 23 -7 24 16 54 33 43 5
-3 17 0 27 8 15 11 16 15 4 34 -20 32 -5 41 117 67 60 13 126 31 147 40 22 9
65 18 96 20 31 2 69 9 84 16 23 10 30 10 45 -4 10 -10 34 -19 52 -21 22 -2 42
-14 56 -31 20 -25 27 -27 68 -23 35 4 49 2 61 -12 25 -28 99 -45 133 -31 21 9
41 9 76 1 42 -9 52 -8 81 10 43 26 68 25 112 -5 24 -16 45 -22 59 -19 17 4 28
-2 45 -25 25 -34 39 -32 39 4 0 17 9 29 29 39 30 16 61 77 61 122 0 40 -47 80
-104 88 -65 10 -85 24 -148 107 -58 76 -95 104 -173 130 -38 12 -51 21 -53 38
-6 38 -75 61 -204 69 l-112 7 -17 44 c-9 25 -14 53 -11 63 5 22 35 24 52 3 9
-11 23 -14 44 -10 38 8 72 -5 109 -40 32 -31 54 -27 63 11 7 27 -26 101 -53
117 -7 4 -13 17 -13 28 0 11 -5 29 -11 41 -15 28 -8 30 45 18 26 -6 79 -12
118 -14 62 -2 73 0 96 21 31 29 34 29 69 -1 15 -13 38 -26 51 -30 19 -6 22 -4
22 18 0 27 13 32 69 27 24 -2 50 23 51 50 0 33 -38 51 -152 70 -70 12 -131 29
-161 45 -47 24 -53 25 -119 14 -94 -14 -108 -9 -108 41 0 45 8 48 39 15 l23
-24 45 20 c33 15 51 17 71 10 15 -5 41 -7 58 -5 19 3 35 -1 43 -11 9 -10 22
-13 42 -9 21 4 29 2 29 -9 0 -8 9 -23 20 -33 17 -15 22 -16 36 -4 10 8 23 28
31 46 48 116 -46 223 -197 223 -37 0 -50 5 -73 30 l-29 30 -114 -7 c-105 -6
-116 -4 -137 14 -12 11 -37 26 -55 33 -18 7 -31 18 -29 24 4 12 21 13 87 2 33
-5 51 -3 65 8 18 13 16 15 -33 46 -68 42 -83 67 -52 92 24 20 61 23 89 8 14
-7 23 -5 36 10 22 24 37 25 77 4 31 -16 32 -16 55 10 36 42 32 99 -10 141 -32
32 -88 55 -135 55 -16 0 -39 17 -68 49 -48 53 -85 72 -185 91 -51 10 -82 10
-143 1 -117 -17 -173 -14 -213 10 -32 20 -33 22 -18 39 42 47 -9 87 -131 103
-86 12 -110 26 -62 37 14 4 24 15 26 28 2 14 15 28 30 35 15 6 32 19 39 27 10
13 15 12 37 -9 29 -27 51 -23 68 14 11 25 14 25 72 19 34 -4 69 -11 79 -16 14
-7 24 -5 38 7 17 16 21 16 53 1 19 -9 40 -16 48 -16 25 0 58 39 58 70 0 49
-31 60 -201 76 -114 10 -157 18 -170 30 -26 23 -24 38 4 30 64 -18 77 -19 77
-2 0 24 64 50 90 36 10 -5 25 -7 34 -4 18 7 30 39 21 54 -30 48 -220 63 -307
23 l-46 -21 -52 36 c-66 46 -71 49 -92 56 -24 7 -23 33 2 41 13 4 19 14 17 28
-2 20 5 23 65 32 37 5 73 15 79 22 9 9 18 9 31 2 25 -14 43 -7 43 16 0 22 29
32 91 34 22 1 49 7 60 15 16 13 17 18 6 36 -12 19 -10 25 12 47 18 17 32 24
47 20 12 -3 28 0 35 8 8 7 19 16 26 18 9 4 6 12 -9 25 -31 27 -29 38 6 45 36
8 101 63 101 86 0 25 -39 58 -90 77 -26 9 -94 19 -161 23 -113 6 -116 7 -142
36 -15 17 -27 36 -27 43 0 13 6 16 52 26 15 4 33 16 39 28 10 19 8 25 -16 44
-28 22 -28 23 -11 48 12 18 25 26 47 26 22 0 32 6 38 23 23 63 -59 112 -189
113 -79 0 -91 3 -175 44 -49 24 -93 48 -97 54 -10 14 -10 66 -1 66 4 0 17 -12
29 -27 l21 -27 46 22 c55 26 76 28 84 6 4 -12 19 -15 67 -13 33 2 71 -2 83 -9
33 -18 53 -15 62 11 5 13 16 29 25 36 11 10 13 18 6 31 -13 24 15 34 68 26 53
-9 87 11 88 52 1 18 9 41 18 51 16 18 16 20 -10 40 -36 29 -65 35 -127 27 -78
-10 -74 -10 -187 8 -58 10 -145 24 -194 32 -49 8 -121 25 -160 38 -39 13 -105
28 -147 33 -97 13 -135 31 -131 62 1 13 -5 32 -14 42 -10 11 -14 27 -11 41 9
33 -18 56 -95 79 -75 23 -88 34 -65 56 16 16 9 17 165 -17 46 -11 54 -16 67
-47 8 -20 15 -46 15 -60 0 -41 32 -23 58 33 25 50 25 50 73 50 39 0 49 -3 49
-17 0 -9 7 -22 15 -29 19 -15 20 -40 2 -40 -14 0 -47 -31 -47 -43 0 -4 7 -7
15 -7 8 0 22 -11 31 -25 20 -30 36 -31 80 -4 37 22 45 57 19 79 -9 7 -15 29
-15 55 0 88 -75 129 -156 85 -37 -19 -47 -20 -77 -11 -18 6 -46 25 -62 41 -15
15 -50 38 -77 50 -27 11 -51 27 -54 35 -3 7 -19 19 -35 25 -34 15 -37 30 -9
55 25 23 25 32 1 40 -27 8 -56 54 -42 68 7 7 16 6 29 -6 10 -9 21 -14 25 -11
3 4 21 -3 39 -14 28 -18 36 -19 51 -7 13 9 36 12 73 8 65 -7 79 11 45 57 -35
49 -21 101 23 84 8 -3 17 -1 21 5 10 18 60 12 88 -9 23 -18 27 -19 41 -4 9 8
16 24 16 34 0 11 10 22 22 26 13 4 28 14 34 22 10 13 14 13 35 -1 33 -24 66
-21 94 8 29 28 31 56 9 121 -11 33 -13 49 -5 57 6 6 11 18 11 26 0 9 18 32 41
53 22 21 39 43 37 50 -8 23 -51 37 -143 47 -319 35 -321 35 -356 15 -19 -11
-38 -30 -44 -43 -15 -33 -56 -23 -207 51 -99 47 -128 66 -128 81 0 16 5 19 30
14 21 -5 32 -2 39 10 8 15 17 15 95 3 66 -10 89 -11 98 -2 7 7 20 12 30 12 21
0 22 3 6 46 -15 41 -21 44 -139 54 -173 16 -187 38 -113 173 17 31 59 51 83
41 34 -14 81 -22 86 -14 8 13 -6 40 -21 40 -7 0 -16 11 -20 25 -3 14 -13 29
-22 34 -23 13 -7 41 24 41 15 0 36 8 46 17 27 24 120 30 149 9 13 -9 41 -16
63 -16 33 0 45 6 76 40 21 23 46 40 59 40 32 0 90 27 97 45 9 24 -15 72 -52
105 -45 39 -103 54 -190 46 -59 -5 -74 -3 -85 11 -22 26 -91 53 -139 53 -25 0
-80 -5 -122 -12 -87 -13 -108 -5 -108 41 0 14 -4 31 -8 37 -9 14 -78 44 -102
44 -10 0 -23 7 -30 16 -11 13 -10 16 8 21 28 7 29 29 2 36 -22 6 -27 26 -7 28
6 1 28 2 47 3 28 1 36 5 38 24 4 24 30 30 50 10 9 -9 19 -8 44 4 59 28 83 37
108 40 14 2 24 9 22 16 -4 21 28 25 48 7 18 -16 23 -17 45 -5 31 17 32 48 3
59 -13 5 -61 24 -108 42 -47 19 -114 37 -150 41 -36 4 -86 10 -111 14 -36 4
-56 1 -87 -15 -60 -30 -64 -28 -56 29 6 46 5 50 -20 61 -14 7 -26 16 -26 20 0
5 -13 15 -30 24 -16 9 -30 22 -30 30 0 11 15 13 75 9 64 -3 77 -1 82 12 4 12
-5 26 -28 45 l-34 28 27 23 c24 20 48 64 48 87 0 4 -18 13 -41 20 -29 9 -39
17 -37 29 4 18 18 20 56 8 23 -8 24 -7 17 48 -5 40 -4 56 5 56 7 0 9 8 5 20
-4 12 -1 27 5 35 10 12 10 18 0 30 -7 8 -10 22 -6 31 9 23 49 13 61 -14 8 -20
16 -23 45 -19 58 8 74 13 78 26 6 17 57 41 87 41 43 0 25 21 -64 75 -112 69
-119 82 -75 135 23 27 25 35 15 56 -18 40 -52 47 -201 38 -189 -11 -190 -11
-237 20 -48 32 -55 53 -19 62 22 5 24 10 21 45 -3 34 -1 40 20 45 15 4 33 -1
52 -15 26 -20 33 -20 113 -10 120 16 136 26 90 61 -38 28 -247 38 -318 14 -28
-9 -53 -16 -56 -16 -13 0 -4 23 22 56 24 30 32 34 75 34 50 0 87 24 87 56 0
12 6 15 26 10 29 -8 134 35 134 54 0 15 -63 40 -102 40 -18 0 -41 9 -53 20
-24 22 -102 40 -177 40 -40 0 -53 5 -73 26 -14 15 -25 30 -25 33 0 4 -17 13
-37 20 -52 19 -73 39 -73 73 0 32 9 34 51 13 27 -14 33 -14 61 0 17 8 39 15
49 15 10 0 21 5 25 11 3 6 15 8 26 5 14 -3 30 5 51 25 24 25 35 29 59 24 27
-6 29 -5 20 12 -6 10 -20 28 -31 40 -25 27 -25 28 -4 53 11 12 30 20 50 20 66
0 46 44 -26 56 -124 20 -185 58 -166 101 10 21 6 56 -5 63 -10 6 -7 45 5 73 5
12 0 23 -20 39 -26 20 -27 22 -9 35 17 13 17 14 -4 28 -12 9 -19 22 -15 30 3
9 0 21 -6 29 -6 7 -9 20 -5 29 7 19 -42 47 -83 47 -15 0 -48 9 -72 20 -24 11
-48 20 -55 20 -19 0 -68 68 -54 76 6 4 61 10 122 13 109 6 111 7 124 34 19 40
62 79 102 93 19 7 35 18 35 25 0 22 -56 29 -209 27 l-148 -3 -34 39 c-32 37
-37 39 -126 50 -51 7 -93 17 -95 23 -3 7 10 19 26 28 35 17 39 33 14 42 -10 3
-27 15 -37 26 -15 16 -27 18 -63 13 -34 -4 -45 -2 -50 10 -3 8 -1 20 5 26 6 6
8 23 5 38 -4 24 -1 29 26 38 17 6 31 15 31 21 0 14 -58 25 -112 22 -55 -3 -63
11 -19 34 16 8 39 31 51 50 19 31 26 35 50 30 27 -6 28 -5 21 22 -8 29 -10 29
-76 17 -34 -6 -72 16 -61 34 4 7 25 12 47 12 35 0 40 3 35 18 -7 21 28 42 68
42 19 0 86 50 86 64 0 2 -21 9 -47 16 -61 15 -73 26 -67 59 4 19 -2 36 -25 65
-17 21 -31 41 -31 43 0 14 55 73 68 73 13 0 12 4 -6 22 -16 16 -32 21 -62 20
-55 -4 -54 22 5 71 25 21 45 46 45 57 0 10 4 20 9 22 5 2 11 17 13 33 2 25 -1
31 -22 33 -13 2 -41 -1 -61 -7 -29 -9 -45 -8 -79 4 -23 8 -59 15 -80 15 -21 0
-43 7 -50 15 -13 15 -6 35 12 35 7 0 31 9 55 21 37 18 46 19 61 8 16 -13 16
-12 1 11 -21 33 -54 38 -69 9 -11 -19 -18 -21 -62 -17 -28 3 -57 13 -66 22
-16 16 -16 18 1 30 23 18 22 30 -5 49 -20 13 -21 18 -11 36 10 16 10 26 -5 50
-19 34 -30 39 -38 16z m-2679 -11415 c3 -5 1 -10 -4 -10 -6 0 -11 5 -11 10 0
6 2 10 4 10 3 0 8 -4 11 -10z"/>
<path d="M3270 8421 c0 -10 30 -24 37 -17 3 3 2 9 -2 15 -8 13 -35 15 -35 2z"/>
<path d="M1997 7229 c3 -10 12 -19 19 -19 8 0 17 -7 20 -15 4 -8 17 -15 30
-15 l24 0 -19 33 c-13 24 -25 32 -48 34 -26 1 -30 -2 -26 -18z"/>
<path d="M2117 6814 c-10 -11 3 -24 24 -24 10 0 19 7 19 15 0 15 -31 21 -43 9z"/>
<path d="M2150 5491 c0 -5 5 -13 11 -17 6 -3 9 -17 6 -30 -5 -29 8 -32 23 -5
14 26 14 26 -15 45 -14 9 -25 12 -25 7z"/>
<path d="M2000 5459 c0 -12 10 -23 25 -29 14 -5 25 -16 25 -25 0 -8 7 -15 15
-15 17 0 20 26 4 35 -6 4 -8 13 -5 21 3 8 4 14 3 14 -1 0 -17 4 -35 9 -28 9
-32 7 -32 -10z"/>
<path d="M2260 5385 c0 -8 5 -15 10 -15 6 0 10 7 10 15 0 8 -4 15 -10 15 -5 0
-10 -7 -10 -15z"/>
<path d="M1940 3184 c0 -8 5 -12 10 -9 6 3 10 10 10 16 0 5 -4 9 -10 9 -5 0
-10 -7 -10 -16z"/>
<path d="M7926 1825 c-8 -23 -9 -23 19 -17 14 2 24 10 22 16 -6 18 -34 18 -41
1z"/>
<path d="M7390 53 c-55 -22 -83 -26 -180 -28 -63 -2 -137 -7 -165 -13 -39 -7
5 -10 190 -11 186 -1 236 2 227 11 -23 23 -11 30 43 26 55 -5 70 3 37 21 -42
22 -87 21 -152 -6z"/>
</g>
</svg>
